# OBJ written from C:\Niekiscool\alles van niek\school\Year2_Project1\3d\final week\building 1\Building001\front.obj
# Units	meters

o Mesh
v 0 0.0290002 0.512867
v 0 0.0290002 5.36713
v 0 6.791 5.36713
v 0 6.791 0.512867
v 0 8.447 5.36713
v 0 8.447 0.512867
v 0 10.517 3.95286
v 0 10.517 1.92714
v 0 10.931 4.1077
v 0 10.931 1.7723
v 0 11.276 4.1077
v 0 11.276 1.7723
v 0 10.931 4.25366
v 0 11.276 4.25366
v 0 11.276 1.62634
v 0 10.931 1.62634
v 0 10.1141 3.94121
v 0 10.1141 1.93879
v 0 9.17179 4.16226
v 0 9.17179 1.71774
v 0 9.45888 3.91125
v 0 9.45888 1.96875
v 0 9.77771 3.80497
v 0 9.77771 2.07503
v 0 11.276 1.99416
v 0 11.667 2.27564
v 0 11.851 2.56103
v 0 11.276 3.92805
v 0 11.667 3.60994
v 0 11.851 3.35734
vn -1 0 0
vt 0.0888069 0.00450156
vt 0.911193 0.00450156
vt 0.911193 0.525578
vt 0.0888069 0.525578
vt 0.911193 0.663188
vt 0.0888069 0.663188
vt 0.671594 0.827701
vt 0.328406 0.827701
vt 0.33038 0.796651
vt 0.66962 0.796651
vt 0.697826 0.859604
vt 0.302174 0.859604
vt 0.722554 0.859604
vt 0.722554 0.886189
vt 0.697826 0.886189
vt 0.302174 0.886189
vt 0.277446 0.886189
vt 0.277446 0.859604
vt 0.29293 0.71904
vt 0.70707 0.71904
vt 0.664545 0.741163
vt 0.335455 0.741163
vt 0.646539 0.765732
vt 0.353461 0.765732
vt 0.66739 0.886189
vt 0.339761 0.886189
vt 0.613499 0.930319
vt 0.387447 0.930319
vt 0.570704 0.944498
vt 0.435796 0.944498
mtllib front.mtl
usemtl building1
g Default
f 1/1/1 2/2/1 3/3/1 4/4/1
f 3/3/1 5/5/1 6/6/1 4/4/1
f 7/7/1 8/8/1 18/9/1 17/10/1
f 7/7/1 9/11/1 10/12/1 8/8/1
f 9/11/1 13/13/1 14/14/1 11/15/1
f 12/16/1 15/17/1 16/18/1 10/12/1
f 20/19/1 19/20/1 21/21/1 22/22/1
f 22/22/1 21/21/1 23/23/1 24/24/1
f 24/24/1 23/23/1 17/10/1 18/9/1
f 10/12/1 9/11/1 11/15/1 28/25/1 25/26/1 12/16/1
f 25/26/1 28/25/1 29/27/1 26/28/1
f 26/28/1 29/27/1 30/29/1 27/30/1
f 5/5/1 19/20/1 20/19/1 6/6/1
