# 3ds Max Wavefront OBJ Exporter v0.97b - (c)2007 guruware
# File Created: 25.10.2016 15:36:36

mtllib dissapearing wall.mtl

#
# object dissapearing_wall
#

v  -137.1958 -141.9751 21.1557
v  -137.1958 -141.9751 -21.1556
v  137.1958 -141.9751 -21.1556
v  137.1958 -141.9751 21.1557
v  -137.1958 141.9751 21.1557
v  137.1958 141.9751 21.1557
v  137.1958 141.9751 -21.1556
v  -137.1958 141.9751 -21.1556
# 8 vertices

vn 0.0000 -1.0000 -0.0000
vn 0.0000 1.0000 -0.0000
vn 0.0000 0.0000 1.0000
vn 1.0000 0.0000 -0.0000
vn 0.0000 0.0000 -1.0000
vn -1.0000 0.0000 0.0000
# 6 vertex normals

vt 0.5057 0.7898 0.0000
vt 0.5057 0.7323 0.0000
vt 0.9455 0.7323 0.0000
vt 0.9455 0.7898 0.0000
vt 0.5057 0.2382 0.0000
vt 0.9455 0.2382 0.0000
vt 0.9455 0.2956 0.0000
vt 0.5057 0.2956 0.0000
vt 0.4445 0.7330 0.0000
vt 0.0047 0.7330 0.0000
vt 0.0047 0.2963 0.0000
vt 0.4445 0.2963 0.0000
vt 0.9985 0.7323 0.0000
vt 0.9985 0.2956 0.0000
# 14 texture coords

g dissapearing_wall
usemtl Material__59
s off
f 1/1/1 2/2/1 3/3/1 4/4/1 
f 5/5/2 6/6/2 7/7/2 8/8/2 
f 1/9/3 4/10/3 6/11/3 5/12/3 
f 4/13/4 3/3/4 7/7/4 6/14/4 
f 3/3/5 2/2/5 8/8/5 7/7/5 
f 2/2/6 1/9/6 5/12/6 8/8/6 
# 6 polygons

