# 3ds Max Wavefront OBJ Exporter v0.97b - (c)2007 guruware
# File Created: 25.10.2016 15:32:54

mtllib first wall piece bricks.mtl

#
# object first_wall_piece_bricks
#

v  421.6657 -550.3607 -224.1996
v  369.8939 -550.3607 -224.1996
v  369.8937 550.3608 -224.1996
v  421.6655 550.3608 -224.1996
v  -18.1543 -550.3608 -224.1996
v  -18.1545 550.3608 -224.1995
v  -53.1496 550.3608 -224.1995
v  -53.1494 -550.3608 -224.1996
v  -441.1975 -550.3608 -224.1996
v  -441.1978 550.3607 -224.1995
v  369.8939 -550.3607 202.3949
v  369.8937 550.3608 202.3948
v  -18.1545 550.3608 202.3949
v  -18.1543 -550.3608 202.3949
v  -53.1494 -550.3608 202.3949
v  -53.1496 550.3608 202.3949
v  -441.1978 550.3607 202.3948
v  -441.1975 -550.3608 202.3949
v  -53.1494 -550.3608 9.7386
v  -18.1543 -550.3608 9.7386
v  -18.1543 -550.3608 -31.5434
v  -53.1494 -550.3608 -31.5434
v  -18.1545 550.3608 9.7387
v  -53.1496 550.3608 9.7387
v  -53.1496 550.3608 -31.5434
v  -18.1545 550.3608 -31.5434
v  -441.1975 -550.3608 9.7387
v  -441.1975 -550.3608 -31.5434
v  369.8939 -550.3607 9.7386
v  369.8939 -550.3607 -31.5434
v  -441.1978 550.3607 9.7387
v  -441.1978 550.3607 -31.5433
v  369.8937 550.3608 9.7386
v  369.8937 550.3608 -31.5434
v  421.6655 550.3608 202.3948
v  421.6655 550.3608 9.7386
v  421.6655 550.3608 -31.5434
v  421.6657 -550.3607 202.3949
v  421.6657 -550.3607 9.7386
v  421.6657 -550.3607 -31.5434
# 40 vertices

vn -0.0000 0.0000 -1.0000
vn 0.0000 0.0000 1.0000
vn 0.0000 -1.0000 -0.0000
vn -0.0000 1.0000 0.0000
vn 1.0000 0.0000 -0.0000
vn -1.0000 -0.0000 0.0000
# 6 vertex normals

vt 0.0146 0.5535 0.0000
vt 0.0346 0.5535 0.0000
vt 0.0345 0.9790 0.0000
vt 0.0145 0.9790 0.0000
vt 0.1846 0.5535 0.0000
vt 0.1845 0.9790 0.0000
vt 0.1981 0.9790 0.0000
vt 0.1981 0.5535 0.0000
vt 0.3481 0.5535 0.0000
vt 0.3481 0.9790 0.0000
vt 0.4167 0.0145 0.0000
vt 0.4171 0.5347 0.0000
vt 0.2333 0.5371 0.0000
vt 0.2321 0.0156 0.0000
vt 0.1985 0.0158 0.0000
vt 0.1997 0.5376 0.0000
vt 0.0140 0.5410 0.0000
vt 0.0140 0.0159 0.0000
vt 0.5489 0.8107 0.0000
vt 0.5632 0.8107 0.0000
vt 0.5628 0.8890 0.0000
vt 0.5485 0.8890 0.0000
vt 0.5484 0.9058 0.0000
vt 0.5627 0.9058 0.0000
vt 0.5624 0.9842 0.0000
vt 0.5480 0.9842 0.0000
vt 0.5268 0.6326 0.0000
vt 0.5412 0.6326 0.0000
vt 0.5415 0.7110 0.0000
vt 0.5272 0.7110 0.0000
vt 0.5273 0.7278 0.0000
vt 0.5416 0.7278 0.0000
vt 0.5420 0.8061 0.0000
vt 0.5277 0.8061 0.0000
vt 0.7221 0.8107 0.0000
vt 0.7217 0.8890 0.0000
vt 0.7216 0.9058 0.0000
vt 0.7212 0.9842 0.0000
vt 0.3900 0.8107 0.0000
vt 0.3896 0.8890 0.0000
vt 0.3896 0.9058 0.0000
vt 0.3892 0.9842 0.0000
vt 0.3680 0.6326 0.0000
vt 0.3684 0.7110 0.0000
vt 0.3684 0.7278 0.0000
vt 0.3688 0.8061 0.0000
vt 0.7000 0.6326 0.0000
vt 0.7004 0.7110 0.0000
vt 0.7005 0.7278 0.0000
vt 0.7009 0.8061 0.0000
vt 0.7212 0.6326 0.0000
vt 0.7216 0.7110 0.0000
vt 0.7217 0.7278 0.0000
vt 0.7221 0.8061 0.0000
vt 0.3688 0.8107 0.0000
vt 0.3684 0.8890 0.0000
vt 0.3684 0.9058 0.0000
vt 0.3680 0.9842 0.0000
vt 0.7309 0.6298 0.0000
vt 0.7265 0.0153 0.0000
vt 0.8339 0.0149 0.0000
vt 0.8382 0.6293 0.0000
vt 0.8798 0.6294 0.0000
vt 0.8766 0.0146 0.0000
vt 0.9879 0.0142 0.0000
vt 0.9874 0.6298 0.0000
vt 0.7098 0.0134 0.0000
vt 0.7098 0.6159 0.0000
vt 0.6049 0.6152 0.0000
vt 0.6049 0.0128 0.0000
vt 0.5824 0.0126 0.0000
vt 0.5824 0.6151 0.0000
vt 0.4776 0.6145 0.0000
vt 0.4776 0.0120 0.0000
# 74 texture coords

g first_wall_piece_bricks
usemtl wire_204204204
s off
f 1/1/1 2/2/1 3/3/1 4/4/1 
f 3/3/1 2/2/1 5/5/1 6/6/1 
f 7/7/1 8/8/1 9/9/1 10/10/1 
f 11/11/2 12/12/2 13/13/2 14/14/2 
f 15/15/2 16/16/2 17/17/2 18/18/2 
f 5/5/1 8/8/1 7/7/1 6/6/1 
f 14/19/3 15/20/3 19/21/3 20/22/3 
f 21/23/3 22/24/3 8/25/3 5/26/3 
f 16/27/4 13/28/4 23/29/4 24/30/4 
f 25/31/4 26/32/4 6/33/4 7/34/4 
f 15/20/3 18/35/3 27/36/3 19/21/3 
f 22/24/3 28/37/3 9/38/3 8/25/3 
f 11/39/3 14/19/3 20/22/3 29/40/3 
f 30/41/3 21/23/3 5/26/3 2/42/3 
f 17/43/4 16/27/4 24/30/4 31/44/4 
f 32/45/4 25/31/4 7/34/4 10/46/4 
f 13/28/4 12/47/4 33/48/4 23/29/4 
f 26/32/4 34/49/4 3/50/4 6/33/4 
f 12/47/4 35/51/4 36/52/4 33/48/4 
f 34/49/4 37/53/4 4/54/4 3/50/4 
f 38/55/3 11/39/3 29/40/3 39/56/3 
f 40/57/3 30/41/3 2/42/3 1/58/3 
f 35/59/5 38/60/5 39/61/5 36/62/5 
f 37/63/5 40/64/5 1/65/5 4/66/5 
f 18/67/6 17/68/6 31/69/6 27/70/6 
f 28/71/6 32/72/6 10/73/6 9/74/6 
f 30/41/3 40/57/3 39/56/3 29/40/3 
f 37/53/4 34/49/4 33/48/4 36/52/4 
f 34/49/4 26/32/4 23/29/4 33/48/4 
f 25/31/4 32/45/4 31/44/4 24/30/4 
f 21/23/3 30/41/3 29/40/3 20/22/3 
f 28/37/3 22/24/3 19/21/3 27/36/3 
f 26/32/4 25/31/4 24/30/4 23/29/4 
f 22/24/3 21/23/3 20/22/3 19/21/3 
f 28/71/6 27/70/6 31/69/6 32/72/6 
# 35 polygons

