# 3ds Max Wavefront OBJ Exporter v0.97b - (c)2007 guruware
# File Created: 25.10.2016 15:30:27

mtllib floor bricks.mtl

#
# object floor_bricks
#

v  -180.0000 -287.8996 177.9753
v  -180.0000 -287.8996 -177.9753
v  180.0000 -287.8996 -177.9753
v  180.0000 -287.8996 177.9753
v  180.0000 287.8996 177.9753
v  180.0000 287.8996 -177.9753
v  -180.0000 287.8996 -177.9753
v  -180.0000 287.8996 177.9753
v  180.0000 257.1004 177.9753
v  -180.0000 257.1004 177.9753
v  -180.0000 257.1004 -177.9753
v  180.0000 257.1004 -177.9753
# 12 vertices

vn 0.0000 -1.0000 -0.0000
vn 0.0000 1.0000 -0.0000
vn 0.0000 0.0000 1.0000
vn -1.0000 0.0000 -0.0000
vn 0.0000 0.0000 -1.0000
vn 1.0000 0.0000 -0.0000
# 6 vertex normals

vt 0.3425 0.1674 0.0000
vt 0.3425 0.4578 0.0000
vt 0.0488 0.4578 0.0000
vt 0.0488 0.1674 0.0000
vt 0.0455 0.8613 0.0000
vt 0.0455 0.5709 0.0000
vt 0.3392 0.5709 0.0000
vt 0.3392 0.8613 0.0000
vt 0.6620 0.9532 0.0000
vt 0.3683 0.9532 0.0000
vt 0.3683 0.5086 0.0000
vt 0.6620 0.5086 0.0000
vt 0.9524 0.4656 0.0000
vt 0.6620 0.4656 0.0000
vt 0.6620 0.0210 0.0000
vt 0.9524 0.0210 0.0000
vt 0.3683 0.4656 0.0000
vt 0.3683 0.0210 0.0000
vt 0.9524 0.9532 0.0000
vt 0.9524 0.5086 0.0000
# 20 texture coords

g floor_bricks
usemtl wire_204204204
s off
f 1/1/1 2/2/1 3/3/1 4/4/1 
f 5/5/2 6/6/2 7/7/2 8/8/2 
f 9/9/3 10/10/3 1/11/3 4/12/3 
f 10/13/4 11/14/4 2/15/4 1/16/4 
f 11/14/5 12/17/5 3/18/5 2/15/5 
f 12/19/6 9/9/6 4/12/6 3/20/6 
# 6 polygons

