# 3ds Max Wavefront OBJ Exporter v0.97b - (c)2007 guruware
# File Created: 25.10.2016 15:10:09

mtllib platform bricks.mtl

#
# object platform_bricks
#

v  136.4836 146.8311 203.8489
v  136.4836 146.8311 -222.7456
v  -136.9988 146.8311 -222.7456
v  -136.9988 146.8311 203.8489
v  136.4836 -146.8311 -222.7456
v  136.4836 -146.8311 203.8489
v  -136.9988 -146.8311 203.8489
v  -136.9988 -146.8311 -222.7456
v  -163.4984 123.3381 -222.7456
v  -163.4984 -146.8311 -222.7456
v  -163.4984 -146.8311 203.8489
v  -163.4984 123.3381 203.8489
v  -136.9988 123.3381 203.8489
v  136.4836 123.3381 203.8489
v  136.4836 123.3381 -222.7456
v  -136.9988 123.3381 -222.7456
v  163.4985 123.3381 -222.7456
v  163.4985 123.3381 203.8489
v  163.4985 -146.8311 203.8489
v  163.4985 -146.8311 -222.7456
# 20 vertices

vn 0.0000 1.0000 -0.0000
vn -0.0000 -1.0000 0.0000
vn -1.0000 0.0000 -0.0000
vn -0.0000 0.0000 1.0000
vn 0.0000 0.0000 -1.0000
vn 1.0000 0.0000 -0.0000
# 6 vertex normals

vt 0.0020 0.3201 0.0000
vt 0.4137 0.3201 0.0000
vt 0.4137 0.5008 0.0000
vt 0.0020 0.5008 0.0000
vt 0.4507 0.5834 0.0000
vt 0.4507 0.2355 0.0000
vt 0.6657 0.2355 0.0000
vt 0.6638 0.5834 0.0000
vt 0.4137 0.5423 0.0000
vt 0.4137 0.8185 0.0000
vt 0.0020 0.8185 0.0000
vt 0.0020 0.5423 0.0000
vt 0.6638 0.0020 0.0000
vt 0.4507 0.0020 0.0000
vt 0.4507 0.8169 0.0000
vt 0.6638 0.8169 0.0000
vt 0.4137 0.2783 0.0000
vt 0.0020 0.2783 0.0000
vt 0.0020 0.0020 0.0000
vt 0.4137 0.0020 0.0000
# 20 texture coords

g platform_bricks
usemtl Material__59
s off
f 1/1/1 2/2/1 3/3/1 4/4/1 
f 5/5/2 6/6/2 7/7/2 8/8/2 
f 9/9/3 10/10/3 11/11/3 12/12/3 
f 13/13/4 7/7/4 6/6/4 14/14/4 
f 15/15/5 5/5/5 8/8/5 16/16/5 
s 4
f 17/17/6 18/18/6 19/19/6 20/20/6 
# 6 polygons

