# 3ds Max Wavefront OBJ Exporter v0.97b - (c)2007 guruware
# File Created: 25.10.2016 15:26:15

mtllib floor with metal wood.mtl

#
# object floor_with_metal_wood
#

v  282.8365 32.9865 226.3352
v  -282.8365 32.9865 226.3352
v  -282.8365 9.9190 226.3352
v  282.8365 9.9190 226.3352
v  282.8365 32.9865 -226.3352
v  282.8365 9.9190 -226.3352
v  -282.8365 32.9865 -226.3352
v  -282.8365 9.9190 -226.3352
# 8 vertices

vn 0.0000 0.0000 1.0000
vn 1.0000 0.0000 -0.0000
vn 0.0000 0.0000 -1.0000
vn -1.0000 0.0000 -0.0000
# 4 vertex normals

vt 0.7646 0.5595 0.0000
vt 0.2958 0.5595 0.0000
vt 0.2958 0.5404 0.0000
vt 0.7646 0.5404 0.0000
vt 0.8402 0.1088 0.0000
vt 0.8402 0.4840 0.0000
vt 0.8211 0.4840 0.0000
vt 0.8211 0.1088 0.0000
vt 0.2958 0.0332 0.0000
vt 0.7646 0.0332 0.0000
vt 0.7646 0.0524 0.0000
vt 0.2958 0.0524 0.0000
vt 0.2203 0.4840 0.0000
vt 0.2203 0.1088 0.0000
vt 0.2394 0.1088 0.0000
vt 0.2394 0.4840 0.0000
# 16 texture coords

g floor_with_metal_wood
usemtl wire_177027088
s 8
f 1/1/1 2/2/1 3/3/1 4/4/1 
s 16
f 5/5/2 1/6/2 4/7/2 6/8/2 
s 32
f 7/9/3 5/10/3 6/11/3 8/12/3 
s 64
f 2/13/4 7/14/4 8/15/4 3/16/4 
# 4 polygons

