# 3ds Max Wavefront OBJ Exporter v0.97b - (c)2007 guruware
# File Created: 25.10.2016 15:26:27

mtllib floor with metal bricks.mtl

#
# object floor_with_metal_bricks
#

v  -282.8365 -58.1533 226.3352
v  -282.8365 -58.1533 -226.3352
v  282.8365 -58.1533 -226.3352
v  282.8365 -58.1533 226.3352
v  282.8365 9.9190 226.3352
v  -282.8365 9.9190 226.3352
v  282.8365 9.9190 -226.3352
v  -282.8365 9.9190 -226.3352
# 8 vertices

vn 0.0000 -1.0000 -0.0000
vn 0.0000 0.0000 1.0000
vn 1.0000 0.0000 -0.0000
vn 0.0000 0.0000 -1.0000
vn -1.0000 0.0000 -0.0000
# 5 vertex normals

vt 0.2958 0.4840 0.0000
vt 0.2958 0.1088 0.0000
vt 0.7646 0.1088 0.0000
vt 0.7646 0.4840 0.0000
vt 0.7646 0.5404 0.0000
vt 0.2958 0.5404 0.0000
vt 0.8211 0.1088 0.0000
vt 0.8211 0.4840 0.0000
vt 0.2958 0.0524 0.0000
vt 0.7646 0.0524 0.0000
vt 0.2394 0.4840 0.0000
vt 0.2394 0.1088 0.0000
# 12 texture coords

g floor_with_metal_bricks
usemtl wire_177027088
s 2
f 1/1/1 2/2/1 3/3/1 4/4/1 
s 8
f 1/1/2 4/4/2 5/5/2 6/6/2 
s 16
f 4/4/3 3/3/3 7/7/3 5/8/3 
s 32
f 3/3/4 2/2/4 8/9/4 7/10/4 
s 64
f 2/2/5 1/1/5 6/11/5 8/12/5 
# 5 polygons

