# OBJ written from D:\alles van niek\school\Year2_Project1\3d\tutorial level\3d assets\newspapers\newspapers.obj
# Units	meters

o Mesh
mtllib newspapers.mtl

o Mesh (2)
v -0.392 -0.022 -0.21
v -0.392 -0.022 0.28
v 0.278 -0.026 0.28
v 0.278 -0.026 -0.21
v 0.3198 0 -0.21
v 0.335 -0.0152 -0.21
v 0.335 -0.0152 0.28
v 0.3198 0 0.28
v 0.3198 -0.038 0.28
v 0.335 -0.0228 0.28
v 0.335 -0.0228 -0.21
v 0.3198 -0.038 -0.21
v 0.325617 -0.00115703 0.28
v 0.325617 -0.00115703 -0.21
v 0.330548 -0.00445198 0.28
v 0.330548 -0.00445198 -0.21
v 0.333843 -0.00938321 0.28
v 0.333843 -0.00938321 -0.21
v 0.333843 -0.0286168 0.28
v 0.333843 -0.0286168 -0.21
v 0.330548 -0.033548 0.28
v 0.330548 -0.033548 -0.21
v 0.325617 -0.036843 0.28
v 0.325617 -0.036843 -0.21
v -0.483151 -0.0392533 -0.372642
v -0.342459 -0.0392533 -0.0329806
v 0.010259 -0.0227467 -0.577019
v 0.150951 -0.0227467 -0.237358
v 0.172787 -0.0392533 0.239833
v 0.0076509 -0.0392533 0.520179
v 0.632952 -0.0227467 0.510891
v 0.467816 -0.0227467 0.791237
v -0.810672 -0.0358121 0.502362
v -0.74363 -0.0358121 0.654366
v -0.525767 -0.0261879 0.376703
v -0.458725 -0.0261879 0.528708
v -0.694305 -0.0281331 0.150531
v -0.742626 -0.0310545 0.275199
v -0.46928 -0.0228589 0.237874
v -0.517601 -0.0257804 0.362542
v -0.824918 -0.0249978 0.324948
v -0.8165 -0.0264244 0.458412
v -0.584054 -0.0179979 0.309832
v -0.575636 -0.0194245 0.443296
v -0.679435 -0.0269969 -0.300978
v -0.712535 -0.0289981 -0.21558
v -0.525293 -0.0233841 -0.241148
v -0.558393 -0.0253853 -0.15575
v -0.809033 -0.0237464 -0.190553
v -0.800557 -0.0251829 -0.0561613
v -0.566495 -0.0166978 -0.205774
v -0.558019 -0.0181343 -0.0713828
v -0.291262 -0.0237464 0.342515
v -0.244965 -0.0251829 0.468965
v -0.0630347 -0.0166978 0.259035
v -0.0167384 -0.0181343 0.385485
vn -0.275936 -0.961176 0
vn -0.0415947 -0.999135 0
vn 0.995185 -0.0980159 0
vn 0.995185 0.0980159 0
vn -0.0308928 0.999523 0
vn 0.0826316 0.99658 0
vn 0.382683 0.92388 0
vn 0.707107 0.707107 0
vn 0.92388 0.382682 0
vn 0.92388 -0.382682 0
vn 0.707107 -0.707107 0
vn 0.382683 -0.92388 0
vn -0.0285412 0.999523 0.0118222
vn -0.0266181 0.999523 -0.0156793
vn -0.0282657 0.999523 0.0124667
vn -0.0282657 0.999523 0.0124666
vn -0.0282657 0.999523 0.0124666
vn -0.0282657 0.999523 0.0124666
vn -0.0282657 0.999523 0.0124667
vn -0.023561 0.999523 0.0199812
vt 0.475551 0.780225
vt 0.01 0.780225
vt 0.01 0.738906
vt 0.475551 0.738906
vt 0.475551 0.716367
vt 0.01 0.716367
vt 0.01 0.709146
vt 0.475551 0.709146
vt 0.475551 0.01
vt 0.475551 0.686607
vt 0.01 0.686607
vt 0.01 0.01
vt 0.475551 0.692242
vt 0.01 0.692242
vt 0.475551 0.697877
vt 0.01 0.697877
vt 0.475551 0.703511
vt 0.01 0.703511
vt 0.475551 0.722002
vt 0.01 0.722002
vt 0.475551 0.727637
vt 0.01 0.727637
vt 0.475551 0.733271
vt 0.01 0.733271
vt 0.478945 0.517658
vt 0.478945 0.01
vt 0.828248 0.01
vt 0.828248 0.517658
vt 0.986603 0.830163
vt 0.478945 0.830163
vt 0.478945 0.52103
vt 0.986603 0.52103
vt 0.99 0.01
vt 0.99 0.30599
vt 0.832157 0.30599
vt 0.832157 0.01
vt 0.711914 0.83366
vt 0.941307 0.83366
vt 0.941307 0.960724
vt 0.711914 0.960724
vt 0.708337 0.960724
vt 0.478945 0.960724
vt 0.478945 0.83366
vt 0.708337 0.83366
vt 0.919196 0.309103
vt 0.919196 0.466236
vt 0.832157 0.466236
vt 0.832157 0.309103
vt 0.475459 0.961607
vt 0.244472 0.961607
vt 0.244472 0.83366
vt 0.475459 0.83366
vt 0.240986 0.961607
vt 0.01 0.961607
vt 0.01 0.83366
vt 0.240986 0.83366
mtllib newspapers.mtl
usemtl Default
g Default
f 3/1/1 4/2/1 12/3/2 9/4/2
f 10/5/3 11/6/3 6/7/4 7/8/4
f 2/9/5 8/10/6 5/11/6 1/12/5
f 5/11/6 8/10/6 13/13/7 14/14/7
f 14/14/7 13/13/7 15/15/8 16/16/8
f 16/16/8 15/15/8 17/17/9 18/18/9
f 18/18/9 17/17/9 7/8/4 6/7/4
f 11/6/3 10/5/3 19/19/10 20/20/10
f 20/20/10 19/19/10 21/21/11 22/22/11
f 22/22/11 21/21/11 23/23/12 24/24/12
f 24/24/12 23/23/12 9/4/2 12/3/2
f 26/25/13 28/26/13 27/27/13 25/28/13
f 30/29/14 32/30/14 31/31/14 29/32/14
f 34/33/15 36/34/15 35/35/15 33/36/15
f 38/37/16 40/38/16 39/39/16 37/40/16
f 42/41/17 44/42/17 43/43/17 41/44/17
f 46/45/18 48/46/18 47/47/18 45/48/18
f 50/49/19 52/50/19 51/51/19 49/52/19
f 54/53/20 56/54/20 55/55/20 53/56/20
