# OBJ written from D:\alles van niek\school\Year2_Project1\3d\tutorial level\3d assets\Barricade\barricade.obj
# Units	meters

o Mesh
v -0.6461 -0.052685 0.0591513
v 0.6461 -0.052685 0.0591513
v 0.6461 -0.0467969 0.0811261
v -0.6461 -0.0467969 0.0811261
v -0.6461 0.0651879 0.0275674
v 0.6461 0.0651879 0.0275674
v 0.6461 0.071076 0.0495422
v -0.6461 0.071076 0.0495422
v -0.506334 -0.157062 0.0550674
v -0.473665 -0.157062 0.0550674
v -0.473665 -0.148607 0.0866232
v -0.506334 -0.148607 0.0866232
v -0.506334 0.599797 -0.147732
v -0.473665 0.599797 -0.147732
v -0.473665 0.608252 -0.116176
v -0.506334 0.608252 -0.116176
v -0.6461 0.212945 -0.0120239
v 0.6461 0.212945 -0.0120239
v 0.6461 0.218833 0.00995088
v -0.6461 0.218833 0.00995088
v -0.6461 0.330817 -0.0436079
v 0.6461 0.330817 -0.0436079
v 0.6461 0.336706 -0.0216331
v -0.6461 0.336706 -0.0216331
v -0.6461 0.435108 -0.0715523
v 0.6461 0.435108 -0.0715523
v 0.6461 0.440996 -0.0495775
v -0.6461 0.440996 -0.0495775
v -0.6461 0.55298 -0.103136
v 0.6461 0.55298 -0.103136
v 0.6461 0.558869 -0.0811615
v -0.6461 0.558869 -0.0811615
v 0.483666 -0.157062 0.0550674
v 0.516335 -0.157062 0.0550674
v 0.516335 -0.148607 0.0866232
v 0.483666 -0.148607 0.0866232
v 0.483666 0.599797 -0.147732
v 0.516335 0.599797 -0.147732
v 0.516335 0.608252 -0.116176
v 0.483666 0.608252 -0.116176
v 0.6521 -0.052685 -0.35526
v -0.6401 -0.052685 -0.35526
v -0.6401 -0.0467969 -0.377235
v 0.6521 -0.0467969 -0.377235
v 0.6521 0.0651879 -0.323676
v -0.6401 0.0651879 -0.323676
v -0.6401 0.071076 -0.345651
v 0.6521 0.071076 -0.345651
v 0.512334 -0.157062 -0.351176
v 0.479665 -0.157062 -0.351176
v 0.479665 -0.148607 -0.382732
v 0.512334 -0.148607 -0.382732
v 0.512334 0.599797 -0.148377
v 0.479665 0.599797 -0.148377
v 0.479665 0.608252 -0.179933
v 0.512334 0.608252 -0.179933
v 0.6521 0.212945 -0.284085
v -0.6401 0.212945 -0.284085
v -0.6401 0.218833 -0.30606
v 0.6521 0.218833 -0.30606
v 0.6521 0.330817 -0.252501
v -0.6401 0.330817 -0.252501
v -0.6401 0.336706 -0.274476
v 0.6521 0.336706 -0.274476
v 0.6521 0.435108 -0.224557
v -0.6401 0.435108 -0.224557
v -0.6401 0.440996 -0.246532
v 0.6521 0.440996 -0.246532
v 0.6521 0.55298 -0.192973
v -0.6401 0.55298 -0.192973
v -0.6401 0.558869 -0.214948
v 0.6521 0.558869 -0.214948
v -0.477666 -0.157062 -0.351176
v -0.510335 -0.157062 -0.351176
v -0.510335 -0.148607 -0.382732
v -0.477666 -0.148607 -0.382732
v -0.477666 0.599797 -0.148377
v -0.510335 0.599797 -0.148377
v -0.510335 0.608252 -0.179933
v -0.477666 0.608252 -0.179933
vn 0 -0.0897517 0.00185562
vn 0 -0.0624833 -0.0179931
vn 1.42 0 0
vn 0 0.0624833 0.0179931
vn -1.42 0 0
vn 0 0.0897517 -0.00185563
vn 0 -0.0897517 0.00185563
vn 0 -0.0624833 -0.0179931
vn 0 0.0624833 0.0179931
vn 0 0.0897517 -0.00185563
vn 0 0.0624833 0.0179931
vn 0 0.0897517 -0.00185563
vn 0 -0.0897517 0.00185563
vn 0 0.0624833 0.0179931
vn 0 0.0897517 -0.00185563
vn 0 -0.0897517 0.00185563
vn 0 -0.0624833 -0.0179931
vn 0 -0.0897517 -0.00185563
vn 0 -0.0624834 0.0179931
vn 0 0.0624833 -0.0179931
vn 0 0.0897517 0.00185563
vn 0 -0.0897517 -0.00185563
vn 0 -0.0624833 0.0179931
vn 0 0.0624833 -0.0179931
vn 0 0.0897517 0.00185563
vn 0 -0.0624834 0.0179931
vn 0 0.0624834 -0.0179931
vn 0 -0.0897517 -0.00185563
vn 0 -0.0624833 0.0179931
vn 0 0.0624833 -0.0179931
vn 0 -0.0897517 -0.00185562
vn 0 -0.0624833 0.0179931
vn 0 0.0624833 -0.0179931
vt 0.967694 0.478025
vt 0.0662349 0.478025
vt 0.0662349 0.466763
vt 0.967694 0.466763
vt 0.955261 0.335926
vt 0.0599989 0.335926
vt 0.0599989 0.24288
vt 0.955261 0.24288
vt 0.0213491 0.375794
vt 0.0662349 0.375794
vt 0.0213491 0.466763
vt 0.967694 0.375794
vt 0.997618 0.375794
vt 0.997618 0.466763
vt 0.967694 0.364531
vt 0.0662349 0.364531
vt 0.0117052 0.679992
vt 0.0117052 0.618279
vt 0.093989 0.618279
vt 0.093989 0.679992
vt 0.909421 0.494854
vt 0.909421 0.556567
vt 0.093989 0.556567
vt 0.093989 0.494854
vt 0.909421 0.618279
vt 0.909421 0.679992
vt 0.909421 0.741705
vt 0.093989 0.741705
vt 0.991705 0.679992
vt 0.991705 0.618279
mtllib barricade.mtl
usemtl checker
g Default
f 1/1/1 2/2/1 3/3/1 4/4/1
f 5/5/2 6/6/2 2/7/2 1/8/2
f 6/9/3 7/10/3 3/3/3 2/11/3
f 7/10/4 8/12/4 4/4/4 3/3/4
f 8/12/5 5/13/5 1/14/5 4/4/5
f 5/15/6 8/12/6 7/10/6 6/16/6
f 9/17/7 10/18/7 11/19/7 12/20/7
f 13/21/8 14/22/8 10/23/8 9/24/8
f 14/22/3 15/25/3 11/19/3 10/23/3
f 15/25/9 16/26/9 12/20/9 11/19/9
f 16/26/5 13/27/5 9/28/5 12/20/5
f 13/29/10 16/26/10 15/25/10 14/30/10
f 17/1/7 18/2/7 19/3/7 20/4/7
f 21/5/8 22/6/8 18/7/8 17/8/8
f 22/9/3 23/10/3 19/3/3 18/11/3
f 23/10/11 24/12/11 20/4/11 19/3/11
f 24/12/5 21/13/5 17/14/5 20/4/5
f 21/15/12 24/12/12 23/10/12 22/16/12
f 25/1/13 26/2/13 27/3/13 28/4/13
f 29/5/8 30/6/8 26/7/8 25/8/8
f 30/9/3 31/10/3 27/3/3 26/11/3
f 31/10/14 32/12/14 28/4/14 27/3/14
f 32/12/5 29/13/5 25/14/5 28/4/5
f 29/15/15 32/12/15 31/10/15 30/16/15
f 33/17/16 34/18/16 35/19/16 36/20/16
f 37/21/17 38/22/17 34/23/17 33/24/17
f 38/22/3 39/25/3 35/19/3 34/23/3
f 39/25/9 40/26/9 36/20/9 35/19/9
f 40/26/5 37/27/5 33/28/5 36/20/5
f 37/29/10 40/26/10 39/25/10 38/30/10
f 41/1/18 42/2/18 43/3/18 44/4/18
f 45/5/19 46/6/19 42/7/19 41/8/19
f 46/9/5 47/10/5 43/3/5 42/11/5
f 47/10/20 48/12/20 44/4/20 43/3/20
f 48/12/3 45/13/3 41/14/3 44/4/3
f 45/15/21 48/12/21 47/10/21 46/16/21
f 49/17/22 50/18/22 51/19/22 52/20/22
f 53/21/23 54/22/23 50/23/23 49/24/23
f 54/22/5 55/25/5 51/19/5 50/23/5
f 55/25/24 56/26/24 52/20/24 51/19/24
f 56/26/3 53/27/3 49/28/3 52/20/3
f 53/29/25 56/26/25 55/25/25 54/30/25
f 57/1/22 58/2/22 59/3/22 60/4/22
f 61/5/26 62/6/26 58/7/26 57/8/26
f 62/9/5 63/10/5 59/3/5 58/11/5
f 63/10/27 64/12/27 60/4/27 59/3/27
f 64/12/3 61/13/3 57/14/3 60/4/3
f 61/15/21 64/12/21 63/10/21 62/16/21
f 65/1/28 66/2/28 67/3/28 68/4/28
f 69/5/29 70/6/29 66/7/29 65/8/29
f 70/9/5 71/10/5 67/3/5 66/11/5
f 71/10/30 72/12/30 68/4/30 67/3/30
f 72/12/3 69/13/3 65/14/3 68/4/3
f 69/15/25 72/12/25 71/10/25 70/16/25
f 73/17/31 74/18/31 75/19/31 76/20/31
f 77/21/32 78/22/32 74/23/32 73/24/32
f 78/22/5 79/25/5 75/19/5 74/23/5
f 79/25/33 80/26/33 76/20/33 75/19/33
f 80/26/3 77/27/3 73/28/3 76/20/3
f 77/29/25 80/26/25 79/25/25 78/30/25
