# OBJ written from D:\alles van niek\school\Year2_Project1\3d\tutorial level\3d assets\boxing light\boxing light.obj
# Units	meters

o Mesh
v -1.18665 -0.04325 -0.2975
v 1.23585 -0.04325 -0.2975
v 1.23585 -0.04325 0.2975
v -1.18665 -0.04325 0.2975
v -0.99285 0.46175 -0.1071
v 1.04205 0.46175 -0.1071
v 1.04205 0.46175 0.1071
v -0.99285 0.46175 0.1071
v -1.22299 -0.14325 -0.26775
v 1.27219 -0.14325 -0.26775
v 1.27219 -0.14325 0.26775
v -1.22299 -0.14325 0.26775
v -1.28665 -0.04325 -0.3975
v 1.33585 -0.04325 -0.3975
v 1.33585 -0.04325 0.3975
v -1.28665 -0.04325 0.3975
v -1.28665 -0.14325 -0.3975
v 1.33585 -0.14325 -0.3975
v 1.33585 -0.14325 0.3975
v -1.28665 -0.14325 0.3975
v -0.955255 0.29675 -0.124504
v 1.00446 0.29675 -0.124504
v 1.00446 0.29675 0.124504
v -0.955255 0.29675 0.124504
v 0.612056 0.46175 -0.1071
v 0.492536 0.33675 -0.154229
v -0.443336 0.33675 -0.154229
v -0.562856 0.46175 -0.1071
v 0.612056 0.46175 0.1071
v 0.492536 0.33675 0.154229
v -0.443336 0.33675 0.154229
v -0.562856 0.46175 0.1071
v -0.23 0.211 -0.02
v -0.24 0.211 -0.0173205
v -0.247321 0.211 -0.01
v -0.25 0.211 0
v -0.247321 0.211 0.01
v -0.24 0.211 0.0173205
v -0.23 0.211 0.02
v -0.22 0.211 0.0173205
v -0.212679 0.211 0.01
v -0.21 0.211 0
v -0.212679 0.211 -0.01
v -0.22 0.211 -0.0173205
v -0.23 2.321 -0.02
v -0.24 2.321 -0.0173205
v -0.247321 2.321 -0.01
v -0.25 2.321 0
v -0.247321 2.321 0.01
v -0.24 2.321 0.0173205
v -0.23 2.321 0.02
v -0.22 2.321 0.0173205
v -0.212679 2.321 0.01
v -0.21 2.321 0
v -0.212679 2.321 -0.01
v -0.22 2.321 -0.0173205
v 0.345 0.211 -0.02
v 0.335 0.211 -0.0173205
v 0.327679 0.211 -0.01
v 0.325 0.211 0
v 0.327679 0.211 0.01
v 0.335 0.211 0.0173205
v 0.345 0.211 0.02
v 0.355 0.211 0.0173205
v 0.362321 0.211 0.01
v 0.365 0.211 0
v 0.362321 0.211 -0.01
v 0.355 0.211 -0.0173205
v 0.345 2.321 -0.02
v 0.335 2.321 -0.0173205
v 0.327679 2.321 -0.01
v 0.325 2.321 0
v 0.327679 2.321 0.01
v 0.335 2.321 0.0173205
v 0.345 2.321 0.02
v 0.355 2.321 0.0173205
v 0.362321 2.321 0.01
v 0.365 2.321 0
v 0.362321 2.321 -0.01
v 0.355 2.321 -0.0173205
vn 0 -1 0
vn 0.933612 0.358285 0
vn -0.933612 0.358285 0
vn -1 0 0
vn 0 0 1
vn 1 0 0
vn 0 0 -1
vn 0 1 0
vn 0 -0.309567 0.950877
vn -0.854279 -0.519814 0
vn 0 -0.309567 -0.950877
vn 0.854279 -0.519814 0
vn 0 0.352788 -0.935703
vn 0 0.352788 0.935703
vn 0.722772 0.691086 0
vn -0.722772 0.691086 0
vn -1.85122e-007 0 -1
vn -0.5 0 -0.866025
vn -0.866025 0 -0.5
vn -0.866025 0 0.5
vn -0.5 0 0.866025
vn -1.85122e-007 0 1
vn 0.5 0 0.866025
vn 0.866025 0 0.5
vn 0.866025 0 -0.5
vn 0.5 0 -0.866025
vn -0.5 0 -0.866026
vn -0.866025 0 -0.500001
vn -0.866025 0 0.500001
vn -0.5 0 0.866026
vn 0.5 0 0.866026
vn 0.866025 0 0.500001
vn 0.866025 0 -0.500001
vn 0.5 0 -0.866026
vt 0.28811 0.264441
vt 0.28811 0.735559
vt 0.231608 0.735559
vt 0.231608 0.264441
vt 0.618361 0.804117
vt 0.672834 0.804117
vt 0.750224 0.885889
vt 0.544323 0.885889
vt 0.672834 0.180205
vt 0.618361 0.180205
vt 0.544323 0.114112
vt 0.750224 0.114112
vt 0.0514374 0.01
vt 0.468281 0.01
vt 0.468281 0.0822529
vt 0.0514374 0.0822529
vt 0.01 0.917747
vt 0.01 0.0822529
vt 0.0514374 0.917747
vt 0.468281 0.99
vt 0.0514374 0.99
vt 0.468281 0.917747
vt 0.509718 0.0822529
vt 0.509718 0.917747
vt 0.400249 0.897465
vt 0.400249 0.102535
vt 0.119469 0.102535
vt 0.119469 0.897465
vt 0.784829 0.917747
vt 0.784829 0.0822529
vt 0.618361 0.295856
vt 0.606376 0.343153
vt 0.606376 0.647583
vt 0.618361 0.69488
vt 0.672834 0.69488
vt 0.684819 0.647583
vt 0.684819 0.343153
vt 0.672834 0.295856
vt 0.869714 0.0353759
vt 0.869714 0.994624
vt 0.866428 0.994624
vt 0.866428 0.0353759
vt 0.863143 0.994624
vt 0.863143 0.0353759
vt 0.859857 0.994624
vt 0.859857 0.0353759
vt 0.856571 0.994624
vt 0.856571 0.0353759
vt 0.853286 0.994624
vt 0.853286 0.0353759
vt 0.85 0.994624
vt 0.85 0.0353759
vt 0.846714 0.994624
vt 0.846714 0.0353759
vt 0.843429 0.994624
vt 0.843429 0.0353759
vt 0.840143 0.994624
vt 0.840143 0.0353759
vt 0.836857 0.994624
vt 0.836857 0.0353759
vt 0.833572 0.994624
vt 0.833572 0.0353759
vt 0.830286 0.994624
vt 0.830286 0.0353759
mtllib boxing light.mtl
usemtl checker
g Default
f 21/1/1 22/2/1 23/3/1 24/4/1
f 6/5/2 7/6/2 3/7/2 2/8/2
f 8/9/3 5/10/3 1/11/3 4/12/3
f 16/13/4 13/14/4 17/15/4 20/16/4
f 15/17/5 16/18/5 20/16/5 19/19/5
f 14/20/6 15/21/6 19/19/6 18/22/6
f 13/23/7 14/24/7 18/22/7 17/15/7
f 10/25/1 9/26/1 17/15/1 18/22/1
f 9/26/1 12/27/1 20/16/1 17/15/1
f 12/27/1 11/28/1 19/19/1 20/16/1
f 11/28/1 10/25/1 18/22/1 19/19/1
f 1/11/8 2/8/8 14/24/8 13/23/8
f 2/8/8 3/7/8 15/29/8 14/24/8
f 3/7/8 4/12/8 16/30/8 15/29/8
f 4/12/8 1/11/8 13/23/8 16/30/8
f 9/26/9 10/25/9 22/2/9 21/1/9
f 10/25/10 11/28/10 23/3/10 22/2/10
f 11/28/11 12/27/11 24/4/11 23/3/11
f 12/27/12 9/26/12 21/1/12 24/4/12
f 2/8/13 1/11/13 5/10/13 28/31/13 27/32/13 26/33/13 25/34/13 6/5/13
f 4/12/14 3/7/14 7/6/14 29/35/14 30/36/14 31/37/14 32/38/14 8/9/14
f 32/38/8 28/31/8 5/10/8 8/9/8
f 25/34/8 29/35/8 7/6/8 6/5/8
f 27/32/15 28/31/15 32/38/15 31/37/15
f 26/33/8 27/32/8 31/37/8 30/36/8
f 30/36/16 29/35/16 25/34/16 26/33/16
f 45/39/17 33/40/17 34/41/18 46/42/18
f 46/42/18 34/41/18 35/43/19 47/44/19
f 47/44/19 35/43/19 36/45/4 48/46/4
f 48/46/4 36/45/4 37/47/20 49/48/20
f 49/48/20 37/47/20 38/49/21 50/50/21
f 50/50/21 38/49/21 39/51/22 51/52/22
f 51/52/22 39/51/22 40/53/23 52/54/23
f 52/54/23 40/53/23 41/55/24 53/56/24
f 53/56/24 41/55/24 42/57/6 54/58/6
f 54/58/6 42/57/6 43/59/25 55/60/25
f 55/60/25 43/59/25 44/61/26 56/62/26
f 56/62/26 44/61/26 33/63/17 45/64/17
f 69/39/7 57/40/7 58/41/27 70/42/27
f 70/42/27 58/41/27 59/43/28 71/44/28
f 71/44/28 59/43/28 60/45/4 72/46/4
f 72/46/4 60/45/4 61/47/29 73/48/29
f 73/48/29 61/47/29 62/49/30 74/50/30
f 74/50/30 62/49/30 63/51/5 75/52/5
f 75/52/5 63/51/5 64/53/31 76/54/31
f 76/54/31 64/53/31 65/55/32 77/56/32
f 77/56/32 65/55/32 66/57/6 78/58/6
f 78/58/6 66/57/6 67/59/33 79/60/33
f 79/60/33 67/59/33 68/61/34 80/62/34
f 80/62/34 68/61/34 57/63/7 69/64/7
